<?xml version="1.0" encoding="UTF-8" standalone="no"?>
<svg
   viewBox="0 0 999.99998 999.99998"
   version="1.1"
   id="svg14"
   sodipodi:docname="account_out.svg"
   inkscape:version="1.1.2 (b8e25be833, 2022-02-05)"
   width="1000"
   height="1000"
   xmlns:inkscape="http://www.inkscape.org/namespaces/inkscape"
   xmlns:sodipodi="http://sodipodi.sourceforge.net/DTD/sodipodi-0.dtd"
   xmlns="http://www.w3.org/2000/svg"
   xmlns:svg="http://www.w3.org/2000/svg">
  <sodipodi:namedview
     id="namedview16"
     pagecolor="#ffffff"
     bordercolor="#666666"
     borderopacity="1.0"
     inkscape:pageshadow="2"
     inkscape:pageopacity="0.0"
     inkscape:pagecheckerboard="0"
     showgrid="false"
     inkscape:zoom="1.1052867"
     inkscape:cx="426.58616"
     inkscape:cy="498.06083"
     inkscape:window-width="1680"
     inkscape:window-height="988"
     inkscape:window-x="-8"
     inkscape:window-y="-8"
     inkscape:window-maximized="1"
     inkscape:current-layer="g1007"
     width="1000px" />
  <defs
     id="defs4">
    <style
       id="style2">.cls-1{fill:#1a1a1a;}</style>
  </defs>
  <g
     id="Calque_2"
     data-name="Calque 2"
     style="display:inline"
     inkscape:groupmode="layer">
    <g
       id="g1007"
       transform="translate(3.5e-6,-6.7535765)">
      <path
         class="cls-1"
         d="m 500,235.91624 a 252.16812,252.16812 0 0 1 251.89104,251.89104 249.09505,249.09505 0 0 1 -28.46369,116.37366 254.7626,254.7626 0 0 1 -75.91996,87.80921 251.89104,251.89104 0 0 1 -295.01479,0 A 254.56109,254.56109 0 0 1 276.54745,604.18094 249.09505,249.09505 0 0 1 248.10896,487.80728 252.16812,252.16812 0 0 1 500,235.91624 m 0,-37.78366 A 289.6747,289.6747 0 1 0 789.67469,487.80728 289.6747,289.6747 0 0 0 500,198.13258 Z"
         id="path6-9"
         style="display:inline;stroke-width:15;stroke-miterlimit:4;stroke-dasharray:none;stroke:#000000;stroke-opacity:1" />
      <path
         class="cls-1"
         d="m 518.31247,563.5761 a 113.70362,113.70362 0 0 1 113.55249,113.57767 v 25.1891 a 252.19331,252.19331 0 0 1 -263.75511,0 v -25.1891 A 113.70362,113.70362 0 0 1 481.66233,563.5761 h 36.65014 m 0,-37.78366 H 481.66233 A 151.33614,151.33614 0 0 0 330.32619,677.15377 v 45.34039 a 289.6747,289.6747 0 0 0 339.32242,0 V 677.15377 A 151.33614,151.33614 0 0 0 518.31247,525.79244 Z"
         id="path8-1"
         style="display:inline;stroke-width:15;stroke-miterlimit:4;stroke-dasharray:none;stroke:#000000;stroke-opacity:1" />
      <path
         class="cls-1"
         d="M 500,382.7939 A 47.405894,47.405894 0 1 1 452.5941,430.17461 47.431083,47.431083 0 0 1 500,382.7939 m 0,-37.78365 A 85.18955,85.18955 0 1 0 585.16436,430.17461 85.18955,85.18955 0 0 0 500,345.01025 Z"
         id="path10-5"
         style="display:inline;stroke-width:15;stroke-miterlimit:4;stroke-dasharray:none;stroke:#000000;stroke-opacity:1" />
      <path
         style="stroke:#000000;stroke-width:13.5711;stroke-miterlimit:4;stroke-dasharray:none;stroke-opacity:1"
         d="m 677.19987,685.78401 v -14.18649 l 9.13932,-9.63903 c 38.76685,-40.88656 61.85441,-87.36564 70.62696,-142.18384 1.84028,-11.49961 2.09627,-16.24541 2.07408,-38.45156 -0.0217,-21.76644 -0.31291,-27.16605 -2.06832,-38.35492 -6.91407,-44.0699 -23.68324,-83.67337 -50.60911,-119.52267 -10.36844,-13.80461 -35.50283,-38.92081 -49.06726,-49.03175 -37.06752,-27.63014 -75.82149,-43.80994 -121.23552,-50.61587 -15.91675,-2.38535 -49.75267,-2.87529 -65.14147,-0.94324 -32.64324,4.09833 -59.92003,12.37647 -88.66478,26.90858 -39.60923,20.02472 -74.72316,51.41357 -99.12643,88.61053 -6.6835,10.18739 -14.0915,23.23119 -17.08496,30.08269 l -1.67997,3.84516 h -12.04822 c -11.08487,0 -12.00341,-0.1266 -11.4877,-1.5833 1.68937,-4.77192 9.77277,-21.04006 14.73996,-29.66469 42.3346,-73.50654 115.02629,-124.07269 198.16199,-137.84641 16.28396,-2.69789 29.05937,-3.70983 46.84616,-3.71069 42.72278,-0.002 82.79592,9.11199 120.9836,27.51597 30.12957,14.5205 53.75407,31.25607 77.37855,54.81486 45.65425,45.52732 73.28268,102.69846 81.06471,167.74612 1.86763,15.61103 1.86396,46.87102 -0.007,62.59451 -6.7289,56.53854 -28.05403,106.21545 -64.51058,150.27744 -7.4757,9.03527 -27.34004,28.94008 -34.43848,34.50864 l -3.8454,3.01644 v -14.18648 z"
         id="path1045"
         transform="translate(-3.5e-6,6.7535765)" />
      <path
         style="stroke:#000000;stroke-width:13.5711;stroke-miterlimit:4;stroke-dasharray:none;stroke-opacity:1"
         d="m 486.05836,499.40472 c -36.65999,-6.95312 -63.09117,-38.78606 -63.09117,-75.98516 0,-57.06119 59.84285,-94.34217 111.0462,-69.1797 44.96526,22.09692 57.04838,80.39398 24.71579,119.24552 -16.90079,20.30836 -46.53218,30.87692 -72.67082,25.91934 z m 31.07301,-23.59297 c 17.60535,-5.54521 32.29666,-21.3772 36.53957,-39.3766 8.79494,-37.31024 -22.40901,-72.47392 -60.07912,-67.70305 -13.52029,1.71233 -23.09839,6.44319 -32.64183,16.1226 -31.36391,31.81074 -14.69973,84.43729 29.42053,92.91194 8.11149,1.55806 17.87121,0.84511 26.76085,-1.95489 z"
         id="path1084"
         transform="translate(-3.5e-6,6.7535765)" />
      <path
         style="stroke:#000000;stroke-width:13.5711;stroke-miterlimit:4;stroke-dasharray:none;stroke-opacity:1"
         d="m 485.8468,762.12237 c -45.111,-1.91362 -91.84865,-16.06859 -130.53124,-39.53271 l -8.39099,-5.08981 0.24831,-49.3889 0.2483,-49.38892 6.07226,-12.15305 c 20.07901,-40.18621 56.70104,-67.97413 101.58967,-77.08383 9.31848,-1.89109 12.23835,-2.01879 45.69195,-1.99843 33.80867,0.0206 36.25001,0.13338 45.23713,2.08995 52.46336,11.4217 93.05945,47.66506 108.60195,96.95762 5.81076,18.42863 6.40753,23.22915 6.93347,55.77335 l 0.47001,29.08345 -6.81097,4.596 c -17.47405,11.79136 -43.57274,24.58995 -64.54165,31.6507 -34.50462,11.61856 -66.88821,16.09357 -104.8182,14.48458 z m 52.39074,-24.26869 c 16.11076,-2.47213 36.77263,-7.75487 51.36178,-13.13196 11.67565,-4.30327 33.53986,-14.72098 44.17291,-21.04723 l 5.88082,-3.49887 0.26797,-13.97591 c 0.45462,-23.71063 -2.11203,-42.97089 -7.70997,-57.85594 -14.75265,-39.22757 -48.20697,-67.96979 -89.59718,-76.97723 -7.46177,-1.62385 -12.88257,-1.99033 -35.29558,-2.38625 -43.02694,-0.76005 -58.53289,1.88943 -82.01199,14.01328 -30.31118,15.65172 -52.3085,43.60598 -61.39159,78.0166 -2.6609,10.08065 -2.75904,11.16497 -3.15259,34.83259 l -0.40619,24.42805 8.91325,5.11501 c 31.12411,17.86107 65.61646,29.45698 98.93514,33.26083 4.72728,0.53969 9.81646,1.14956 11.30928,1.35528 1.49283,0.20571 12.48545,0.24092 24.42806,0.0783 16.43009,-0.22382 24.77548,-0.7656 34.29588,-2.22647 z"
         id="path1123"
         transform="translate(-3.5e-6,6.7535765)" />
      <path
         style="stroke:#000000;stroke-width:13.5711;stroke-miterlimit:4;stroke-dasharray:none;stroke-opacity:1"
         d="M 311.73228,690.51889 C 241.21664,627.55063 207.03577,531.26682 221.72947,436.9907 c 2.03299,-13.04386 7.11935,-33.52922 11.569,-46.59425 3.38485,-9.93858 4.09188,-11.30145 5.83356,-11.24465 1.09004,0.0355 6.43727,0.13732 11.88274,0.22618 l 9.90086,0.16156 -2.65118,6.42919 c -20.71776,50.24107 -23.53319,113.58011 -7.49601,168.63851 11.37541,39.05375 34.52601,78.30221 63.97343,108.4576 l 7.84261,8.03114 -0.24805,14.3353 -0.24805,14.33528 z"
         id="path1359"
         transform="translate(-3.5e-6,6.7535765)" />
      <path
         style="stroke:#000000;stroke-width:4.79812;stroke-miterlimit:4;stroke-dasharray:none;stroke-opacity:1"
         d="m 338.64258,712.25402 -0.74461,-0.57283 0.13428,-25.8897 c 0.11173,-21.54046 0.22326,-26.61515 0.66392,-30.20802 0.48577,-3.96071 1.49973,-10.96213 1.60594,-11.08914 0.14173,-0.16946 -0.14394,66.45001 -0.28862,67.30714 -0.20131,1.19268 -0.3465,1.24061 -1.37091,0.45255 z"
         id="path1476"
         transform="translate(-3.5e-6,6.7535765)" />
    </g>
  </g>
</svg>
