<svg xmlns="http://www.w3.org/2000/svg" width="1000" height="1000" viewBox="0 0 1000 1000">
  <defs>
    <style>
      .cls-1 {
        fill: #0b0e0c;
        stroke: #000;
        stroke-width: 1px;
        fill-rule: evenodd;
      }
    </style>
  </defs>
  <path id="Фигура_4" data-name="Фигура 4" class="cls-1" d="M260,337H385.937c2.655,0,.913-24.507,2.063-54,2.543-65.232,31.391-95,116-95,76.9,0,103.623,27.84,110,89,3.329,31.925.178,60,2.823,60H740V768H260V337Zm48,49H691V717H308V386Zm129-48.784L563,337l-1-52s3.5-47.779-47-48c-32.44-.142-37,0-37,0s-40.678-2.239-41,49C436.73,328.982,437,337.216,437,337.216Z"/>
</svg>
