<?xml version="1.0" encoding="UTF-8" standalone="no"?>
<svg
   width="48"
   height="48"
   viewBox="0 0 48 48"
   version="1.1"
   id="svg16"
   sodipodi:docname="headhunter.svg"
   inkscape:version="1.2.2 (732a01da63, 2022-12-09)"
   xmlns:inkscape="http://www.inkscape.org/namespaces/inkscape"
   xmlns:sodipodi="http://sodipodi.sourceforge.net/DTD/sodipodi-0.dtd"
   xmlns="http://www.w3.org/2000/svg"
   xmlns:svg="http://www.w3.org/2000/svg">
  <defs
     id="defs20" />
  <sodipodi:namedview
     id="namedview18"
     pagecolor="#ffffff"
     bordercolor="#000000"
     borderopacity="0.25"
     inkscape:showpageshadow="2"
     inkscape:pageopacity="0.0"
     inkscape:pagecheckerboard="0"
     inkscape:deskcolor="#d1d1d1"
     showgrid="false"
     inkscape:zoom="11.313709"
     inkscape:cx="26.295533"
     inkscape:cy="46.227106"
     inkscape:window-width="1920"
     inkscape:window-height="1001"
     inkscape:window-x="-9"
     inkscape:window-y="-9"
     inkscape:window-maximized="1"
     inkscape:current-layer="svg16" />
  <path
     d="M24 48c13.255 0 24-10.745 24-24S37.255 0 24 0 0 10.745 0 24s10.745 24 24 24"
     fill="#D6001C"
     id="path12" />
  <path
     d="M13.65 13.169v8.164c1.243-1.482 2.733-2.228 4.461-2.228.89 0 1.687.17 2.402.507.717.335 1.253.765 1.615 1.287.364.527.61 1.104.743 1.74.132.633.198 1.618.198 2.954v8.729h-3.862V26.46c0-1.56-.07-2.548-.217-2.968a1.917 1.917 0 0 0-.775-1c-.372-.251-.835-.375-1.394-.375-.64 0-1.214.16-1.713.478-.51.32-.876.798-1.108 1.437-.236.64-.354 1.585-.35 2.836l-.004 7.454H9.789V13.169h3.862m15.206 0v8.164c1.244-1.482 2.733-2.228 4.46-2.228.887 0 1.69.17 2.406.507.714.335 1.25.765 1.61 1.287a4.69 4.69 0 0 1 .743 1.74c.133.633.199 1.618.199 2.954v8.729h-3.858V26.46c0-1.56-.073-2.548-.22-2.968a1.91 1.91 0 0 0-.777-1c-.368-.251-.835-.375-1.394-.375-.639 0-1.213.16-1.713.478-.503.32-.871.798-1.106 1.437-.232.64-.35 1.585-.35 2.836v7.454H25V13.169h3.857"
     fill="#FEFEFE"
     id="path14" />
  <path
     style="fill:#282828;fill-opacity:1"
     d="M 22.17199,47.908189 C 18.895168,47.622767 15.979686,46.798043 13.120393,45.347697 5.4550684,41.459543 0.38444007,33.578184 0.06881917,25.061425 -0.08878076,20.808726 0.71288055,17.00988 2.5403486,13.349545 3.1108165,12.206924 3.46024,11.608926 4.1707563,10.55929 6.5010952,7.1167141 9.7245606,4.3076599 13.415233,2.5032893 15.976985,1.2508485 18.477757,0.51756488 21.375921,0.16903299 22.60752,0.0209215 25.37474,0.02039056 26.624079,0.16802605 29.50905,0.50894583 32.029922,1.2496302 34.584767,2.507041 c 4.669282,2.2980677 8.428119,6.0178357 10.784413,10.67232 1.907916,3.768787 2.720194,7.53459 2.562944,11.882064 -0.157133,4.344219 -1.568103,8.617599 -4.074297,12.339754 -2.968466,4.408711 -7.3353,7.706796 -12.427852,9.386228 -1.440997,0.475216 -3.072031,0.829062 -4.776412,1.036225 -0.940253,0.114285 -3.570526,0.163912 -4.481573,0.08456 z m -8.4914,-17.71423 c 0,-4.42319 0.02747,-5.008324 0.275559,-5.869635 0.322521,-1.119723 0.990384,-1.791937 2.049452,-2.0628 1.490536,-0.381216 2.716581,0.228644 3.022249,1.503327 0.08751,0.364914 0.101357,0.993893 0.121075,5.498048 l 0.02227,5.085995 h 1.97722 1.977219 l -0.02721,-5.321867 c -0.0281,-5.494479 -0.04141,-5.810215 -0.282875,-6.707617 -0.428829,-1.593759 -1.547607,-2.645362 -3.274882,-3.078244 -0.681357,-0.17076 -2.069791,-0.18592 -2.695188,-0.02943 -0.988851,0.247437 -1.88526,0.76083 -2.678394,1.533974 L 13.68059,21.219937 V 17.170165 13.120393 H 11.734644 9.7886978 v 10.614251 10.61425 h 1.9459462 1.945946 z m 15.229219,-0.400347 c 0.02115,-4.360409 0.02735,-4.578368 0.144938,-5.0949 0.352142,-1.546827 1.280838,-2.415989 2.710808,-2.537029 1.295443,-0.109654 2.268443,0.563266 2.501395,1.729947 0.04786,0.239713 0.07622,1.879649 0.09338,5.400753 l 0.02465,5.056511 h 1.972128 1.972128 l -0.001,-4.289926 c -0.0011,-4.813063 -0.05675,-6.59555 -0.232287,-7.444717 -0.170799,-0.826226 -0.594088,-1.649404 -1.114644,-2.167667 -0.93551,-0.93139 -2.360865,-1.425361 -3.900218,-1.351661 -1.457721,0.06979 -2.55849,0.557205 -3.670762,1.625389 l -0.51597,0.495519 v -4.048514 -4.048514 l -1.960688,0.01554 -1.960688,0.01554 -0.0149,10.599509 -0.0149,10.599508 h 1.972274 1.972274 z"
     id="path1604" />
  <path
     style="fill:#282828;fill-opacity:1;stroke-width:0.00390625"
     d="m 28.890625,25.836436 c 0,-0.06519 0.03355,-0.429142 0.05695,-0.617686 0.0859,-0.692304 0.228472,-1.199267 0.456459,-1.623047 0.300261,-0.558123 0.727044,-0.954405 1.301045,-1.208063 0.337339,-0.149074 0.666182,-0.228671 1.080078,-0.261433 0.08201,-0.0065 0.393161,-0.0065 0.476563,-3.5e-5 0.522471,0.04059 0.91092,0.177007 1.267578,0.445149 0.193107,0.145182 0.361064,0.330027 0.485855,0.534708 l 0.02416,0.03962 -0.0011,0.04715 -0.0011,0.04715 -0.02611,-0.04575 c -0.0536,-0.09394 -0.132491,-0.206722 -0.206868,-0.295753 -0.04899,-0.05864 -0.154361,-0.164777 -0.218197,-0.219779 -0.492609,-0.424448 -1.173302,-0.59997 -1.957031,-0.504638 -0.571996,0.06958 -1.065422,0.265531 -1.462355,0.580742 -0.147781,0.117356 -0.303346,0.272386 -0.422358,0.420907 -0.312621,0.390137 -0.540711,0.885734 -0.681411,1.480581 -0.05446,0.230252 -0.07915,0.394855 -0.09581,0.638672 -0.0082,0.119655 -0.01705,0.313557 -0.01976,0.43164 -0.0012,0.05371 -0.0032,0.105127 -0.0043,0.114258 l -0.002,0.0166 h -0.02515 -0.02515 z"
     id="path2089" />
  <path
     style="fill:#282828;fill-opacity:1;stroke-width:0.00390625"
     d="m 28.892155,25.833008 c 0.0012,-0.01343 0.0032,-0.04287 0.0044,-0.06543 0.0032,-0.05811 0.01541,-0.194608 0.03139,-0.351562 0.09989,-0.981567 0.307242,-1.629688 0.690484,-2.158204 0.127035,-0.175189 0.300455,-0.35875 0.461622,-0.488615 0.162144,-0.130653 0.34817,-0.248184 0.532022,-0.336132 0.328723,-0.157248 0.652546,-0.249143 1.022666,-0.290215 0.15601,-0.01731 0.167091,-0.01781 0.392578,-0.01768 0.231958,1.36e-4 0.264378,0.0018 0.416015,0.02166 0.42644,0.05578 0.769014,0.189945 1.080078,0.422994 0.188321,0.141089 0.358306,0.325955 0.480932,0.523035 l 0.03104,0.04989 -0.0011,0.04292 -0.0011,0.04292 -0.02822,-0.04809 c -0.05503,-0.0938 -0.132942,-0.204061 -0.204632,-0.289593 -0.04531,-0.05406 -0.170023,-0.177653 -0.229306,-0.227252 -0.134256,-0.112325 -0.25691,-0.1921 -0.416752,-0.271058 -0.107237,-0.05297 -0.183205,-0.0843 -0.289063,-0.119194 -0.434402,-0.143198 -0.955923,-0.164966 -1.484375,-0.06196 -0.607706,0.118457 -1.106923,0.386109 -1.498647,0.803488 -0.398319,0.424406 -0.677596,0.995149 -0.836854,1.710231 -0.06112,0.274443 -0.08418,0.504582 -0.100067,0.998988 -0.0022,0.06957 -0.005,0.128021 -0.0062,0.129883 -0.0012,0.0019 -0.01268,0.0034 -0.02561,0.0034 h -0.02352 z"
     id="path2091" />
  <path
     style="fill:#282828;fill-opacity:1;stroke-width:0.00390625"
     d=""
     id="path2093" />
  <path
     style="fill:#282828;fill-opacity:1;stroke-width:0.00390625"
     d="m 28.94696,25.829102 c 0.0012,-0.01987 0.0031,-0.07217 0.0042,-0.116211 0.01145,-0.431054 0.03639,-0.692103 0.09012,-0.94336 0.116163,-0.543198 0.30333,-1.00911 0.55786,-1.388672 0.46314,-0.690645 1.147015,-1.095937 2.029718,-1.202895 0.462213,-0.05601 0.88335,-0.01954 1.259301,0.10905 0.370615,0.126762 0.692965,0.346359 0.926192,0.630955 0.07075,0.08633 0.144862,0.193478 0.196699,0.28437 l 0.02406,0.04218 v 1.310356 1.310356 h -2.545157 -2.545158 z"
     id="path2095" />
  <path
     style="fill:#282828;fill-opacity:1;stroke-width:0.00390625"
     d="m 28.947317,25.81543 c 0.0011,-0.02739 0.0038,-0.103418 0.006,-0.168946 0.01547,-0.461667 0.04019,-0.679556 0.111451,-0.982422 0.273197,-1.161111 0.877302,-1.938947 1.780906,-2.293063 0.488363,-0.191386 1.085997,-0.263111 1.591797,-0.191038 0.695727,0.09914 1.256255,0.463409 1.573827,1.022792 l 0.02383,0.04197 v 1.310254 1.310254 h -2.544937 -2.544937 z"
     id="path2097" />
  <path
     style="fill:#282828;fill-opacity:1;stroke-width:0.00390625"
     d="m 28.947164,25.811523 c 0.0012,-0.02954 0.004,-0.105566 0.0062,-0.168945 0.01344,-0.391024 0.03517,-0.61826 0.07994,-0.835937 0.278045,-1.352053 0.986849,-2.21344 2.078072,-2.525417 0.296554,-0.08478 0.607938,-0.127918 0.923828,-0.127974 0.135165,-2.4e-5 0.206352,0.0037 0.324725,0.01689 0.725378,0.08094 1.31089,0.444577 1.645465,1.021929 l 0.02981,0.05144 v 1.310864 1.310864 H 31.49011 28.945017 Z"
     id="path2099" />
  <path
     style="fill:#282828;fill-opacity:1;stroke-width:0.00390625"
     d="m 28.945323,25.860352 c 3.1e-5,-0.01561 0.01184,-0.336621 0.01376,-0.374024 0.02035,-0.396664 0.04536,-0.580955 0.119443,-0.880166 0.365907,-1.477829 1.2745,-2.311931 2.657799,-2.4399 0.35035,-0.03241 0.683986,-0.0087 0.984476,0.07001 0.555794,0.145561 0.993658,0.46816 1.274861,0.939259 l 0.03949,0.06616 v 1.311771 1.31177 H 31.49023 c -2.033338,0 -2.544919,-9.81e-4 -2.544911,-0.0049 z"
     id="path2101" />
  <path
     style="fill:#282828;fill-opacity:1;stroke-width:0.00390625"
     d="m 28.945321,25.856445 c 2.4e-5,-0.02377 0.0121,-0.339297 0.01573,-0.411133 0.01818,-0.359471 0.04659,-0.558023 0.123423,-0.862549 0.308548,-1.222994 0.994991,-2.004805 2.019042,-2.299549 0.204433,-0.05884 0.404261,-0.09578 0.632812,-0.116971 0.524132,-0.0486 0.99871,0.02722 1.402617,0.224093 0.217617,0.106073 0.386309,0.225952 0.552498,0.392629 0.123096,0.123457 0.211531,0.237653 0.304649,0.393393 l 0.03906,0.06534 v 1.311771 1.31177 H 31.49023 28.945308 Z"
     id="path2103" />
  <path
     style="fill:#282828;fill-opacity:1;stroke-width:0.00390625"
     d="m 24.958775,24.151367 c 0.0013,-0.850244 0.0034,-1.980517 0.0047,-2.511719 l 0.0024,-0.96582 H 24.982905 25 v 2.511719 2.511719 h -0.02176 -0.02176 z"
     id="path2105" />
  <path
     style="fill:#282828;fill-opacity:1;stroke-width:0.00390625"
     d="m 23.037505,24.133789 c -0.01798,-0.420937 -0.06814,-0.937789 -0.123459,-1.272079 -0.11345,-0.68557 -0.34329,-1.286299 -0.707546,-1.849294 -0.09765,-0.150928 -0.196301,-0.282042 -0.307654,-0.408892 -0.06461,-0.0736 -0.205614,-0.215477 -0.278703,-0.280427 -0.04472,-0.03974 -0.05202,-0.04771 -0.04371,-0.04771 0.0066,0 0.01748,0.0069 0.0322,0.0205 0.257815,0.237803 0.447913,0.458753 0.629319,0.731452 0.251296,0.377763 0.436982,0.791451 0.568081,1.265625 0.119355,0.431696 0.169503,0.726589 0.203601,1.197265 0.01531,0.211394 0.03813,0.707032 0.03255,0.707032 -0.0011,0 -0.0032,-0.02857 -0.0047,-0.06348 z"
     id="path2107" />
  <path
     style="fill:#282828;fill-opacity:1;stroke-width:0.00390625"
     d="M 13.652344,14.896484 V 13.166016 H 11.720703 9.7890625 v -0.02149 -0.02148 h 1.9453125 1.945313 V 14.875 16.626953 h -0.01367 -0.01367 z"
     id="path2109" />
  <path
     style="fill:#282828;fill-opacity:1;stroke-width:0.00390625"
     d="m 8.1679688,14.115234 v -2.511718 h 4.4140622 4.414063 v 2.511718 2.511719 h -1.65625 -1.65625 V 14.873047 13.119141 H 11.734375 9.7851563 v 1.753906 1.753906 H 8.9765625 8.1679688 Z"
     id="path2111" />
  <path
     style="fill:#282828;fill-opacity:1;stroke-width:0.00390625"
     d="M 13.652344,14.896484 V 13.166016 H 11.720703 9.7890625 v -0.02149 -0.02148 h 1.9453125 1.945313 V 14.875 16.626953 h -0.01367 -0.01367 z"
     id="path2113" />
  <path
     style="fill:#282828;fill-opacity:1;stroke-width:0.00390625"
     d="m 10.760742,13.120117 c 0.535498,-5.45e-4 1.411768,-5.45e-4 1.947266,0 0.535498,5.46e-4 0.09736,9.92e-4 -0.973633,9.92e-4 -1.070996,0 -1.509131,-4.46e-4 -0.973633,-9.92e-4 z"
     id="path2115" />
  <path
     style="fill:#282828;fill-opacity:1;stroke-width:0.00390625"
     d="m 13.116211,13.120118 c 0.103662,-5.79e-4 0.273291,-5.79e-4 0.376953,0 0.103662,5.79e-4 0.01885,0.0011 -0.188476,0.0011 -0.207325,0 -0.292139,-4.74e-4 -0.188477,-0.0011 z"
     id="path2117" />
  <path
     style="fill:#282828;fill-opacity:1;stroke-width:0.00390625"
     d="m 23.53125,47.993754 c -1.299132,-0.0256 -2.590746,-0.15446 -3.853516,-0.38444 -0.2247,-0.04092 -0.579343,-0.110341 -0.641601,-0.125587 -0.0075,-0.0018 -0.0088,-0.0048 -0.0088,-0.01931 0,-0.0094 6.21e-4,-0.01715 0.0014,-0.01715 7.59e-4,0 0.06448,0.013 0.141601,0.02888 0.934204,0.192431 1.876712,0.330602 2.892174,0.423991 0.418605,0.0385 0.814769,0.04938 1.671875,0.04592 0.505532,-0.002 0.648336,-0.004 1.037109,-0.01442 0.752202,-0.02011 1.371234,-0.05293 1.770518,-0.09387 0.261555,-0.02681 0.92189,-0.118812 1.247592,-0.173815 0.03144,-0.0053 0.05913,-0.0097 0.06152,-0.0097 0.0025,0 0.0044,0.0072 0.0044,0.01727 0,0.02051 0.01358,0.01627 -0.119141,0.03724 -0.950399,0.150205 -1.982703,0.246365 -2.978516,0.277452 -0.369575,0.01154 -0.867176,0.01458 -1.226562,0.0075 z"
     id="path2119" />
  <path
     style="fill:#282828;fill-opacity:1;stroke-width:0.00390625"
     d="M 17.361328,47.067953 C 16.291822,46.757932 15.297561,46.397211 14.3125,45.96183 12.447684,45.137613 10.713443,44.089742 9.0967512,42.81035 l -0.061452,-0.04863 0.027365,-0.0012 0.027365,-0.0011 0.1161183,0.09126 c 1.2723835,1.000009 2.6033485,1.843445 4.0516655,2.567553 0.993185,0.496559 1.9561,0.902633 2.972656,1.253609 0.387614,0.133828 0.731109,0.242011 1.204101,0.379228 l 0.0498,0.01445 v 0.019 c 0,0.01045 -4.39e-4,0.01889 -9.77e-4,0.01877 -5.37e-4,-1.29e-4 -0.05547,-0.01603 -0.12207,-0.03533 z"
     id="path2121" />
  <path
     style="fill:#282828;fill-opacity:1;stroke-width:0.00390625"
     d="M 8.9352809,42.680987 C 7.410522,41.447622 6.0704962,40.067574 4.8812328,38.505859 4.8346052,38.444629 4.79473,38.391455 4.7926214,38.387695 c -0.00347,-0.0062 -0.00152,-0.0068 0.020825,-0.0068 h 0.024659 l 0.070206,0.09264 c 0.5609256,0.740214 1.1627316,1.444503 1.8316876,2.143611 0.1361826,0.142321 0.5618462,0.567058 0.7092209,0.707678 0.5140315,0.490469 0.987391,0.906707 1.5283204,1.343895 0.059619,0.04818 0.1083984,0.08839 0.1083984,0.08934 0,9.53e-4 -0.011985,0.0017 -0.026633,0.0017 h -0.026633 z"
     id="path2123" />
  <path
     style="fill:#282828;fill-opacity:1;stroke-width:0.00390625"
     d="M 2.913451,35.465788 C 2.0742043,33.92464 1.4111007,32.307336 0.92790042,30.623047 c -0.012019,-0.0419 -0.0228045,-0.07925 -0.0239679,-0.08301 -0.001794,-0.0058 5.0383e-4,-0.0068 0.0151189,-0.0068 h 0.0172341 l 0.0245622,0.08496 c 0.19797658,0.684804 0.43257698,1.378298 0.68945978,2.038086 0.3734264,0.959124 0.8337183,1.945839 1.3150931,2.81913 0.023327,0.04232 0.042412,0.07791 0.042412,0.0791 0,0.0012 -0.010107,0.0021 -0.022461,0.0021 l -0.022461,-3.9e-5 -0.04944,-0.09079 z"
     id="path2125" />
  <path
     style="fill:#282828;fill-opacity:1;stroke-width:0.00390625"
     d="m 0.89491062,30.506836 c -0.00427,-0.0145 -0.0174451,-0.06152 -0.0292776,-0.104492 -0.35443203,-1.287088 -0.59575558,-2.568681 -0.73467729,-3.901638 -0.007573,-0.07266 -0.0137682,-0.134621 -0.0137682,-0.137695 0,-0.004 0.004935,-0.0056 0.0175781,-0.0056 0.009908,0 0.0175781,0.0018 0.0175781,0.0042 0,0.0023 0.007082,0.07393 0.0157367,0.159179 0.13607626,1.340208 0.38808576,2.662416 0.75712412,3.972373 l 0.0112797,0.04004 h -0.0169049 -0.0169049 z"
     id="path2127" />
  <path
     style="fill:#282828;fill-opacity:1;stroke-width:0.00390625"
     d="m 0.11538594,26.344727 c -0.003082,-0.01815 -0.02747402,-0.294976 -0.03897979,-0.442383 -0.05717336,-0.732483 -0.07918061,-1.399376 -0.07186452,-2.177735 0.00676286,-0.719501 0.04805161,-1.461824 0.12064249,-2.169012 0.006344,-0.0618 0.0115346,-0.11322 0.0115346,-0.114258 0,-10e-4 0.008789,-0.0019 0.0195313,-0.0019 0.0224273,0 0.0213595,-0.0032 0.0157386,0.04687 -0.0126329,0.112499 -0.0441041,0.478189 -0.0584937,0.679688 -0.04577689,0.641019 -0.06399025,1.167682 -0.06416687,1.855468 -1.8617e-4,0.724904 0.01949506,1.282084 0.06809316,1.927735 0.009721,0.129152 0.0301952,0.368949 0.0334351,0.391601 l 0.002374,0.0166 h -0.0178446 c -0.0170861,0 -0.0179363,-5.4e-4 -0.0200002,-0.0127 z"
     id="path2129" />
  <path
     style="fill:#282828;fill-opacity:1;stroke-width:0.00390625"
     d="m 1.2460937,16.356172 c 0,-0.0084 0.117629,-0.346269 0.190663,-0.547578 0.5540418,-1.527147 1.2752007,-3.016673 2.1304643,-4.400391 l 0.044667,-0.07226 0.022181,-0.0012 c 0.0122,-6.44e-4 0.022181,-3.7e-5 0.022181,0.0014 0,0.0014 -0.00329,0.0072 -0.00732,0.01289 -0.012491,0.01771 -0.1408627,0.224362 -0.2005605,0.322869 -0.2302828,0.379986 -0.4305981,0.740374 -0.6817645,1.226563 -0.08157,0.157895 -0.3095775,0.613824 -0.3780026,0.755859 -0.365214,0.758103 -0.6782806,1.499751 -0.9538986,2.259766 -0.044505,0.122721 -0.1417578,0.399858 -0.1497579,0.426757 -0.00483,0.01622 -0.00532,0.0166 -0.021897,0.0166 -0.00933,0 -0.01696,-5.63e-4 -0.01696,-0.0012 z"
     id="path2131" />
  <path
     style="fill:#282828;fill-opacity:1;stroke-width:0.00390625"
     d="m 4.3345391,10.243243 c 0.00944,-0.01527 0.1497572,-0.211916 0.2334988,-0.3272274 1.24766,-1.7180174 2.715133,-3.2626741 4.3672613,-4.5969634 l 0.1169399,-0.094443 h 0.029349 c 0.016326,0 0.027702,0.00147 0.025638,0.0033 -0.00204,0.00182 -0.039746,0.032046 -0.083789,0.067174 C 8.183908,5.9646891 7.3143432,6.7701313 6.52905,7.6055376 5.8016514,8.3793548 5.094145,9.2452461 4.4632548,10.133789 l -0.081126,0.114258 h -0.025279 c -0.019007,0 -0.024543,-0.0012 -0.02231,-0.0048 z"
     id="path2133" />
  <path
     style="fill:#282828;fill-opacity:1;stroke-width:0.00390625"
     d="M 9.0568359,5.2211943 C 9.058877,5.219316 9.10625,5.1818328 9.1621094,5.1378982 9.8823952,4.571379 10.625009,4.0519383 11.400391,3.5722745 12.718128,2.7570999 14.122439,2.067738 15.575001,1.5230009 l 0.139454,-0.052298 0.05391,1.039e-4 0.05391,1.039e-4 -0.169922,0.063873 c -0.77327,0.2906688 -1.478033,0.5954918 -2.251382,0.973762 -1.468293,0.7181894 -2.885797,1.6104372 -4.1900335,2.6374165 l -0.099609,0.078434 -0.029101,1.066e-4 c -0.01683,6.18e-5 -0.027537,-0.00133 -0.025391,-0.00331 z"
     id="path2135" />
  <path
     style="fill:#282828;fill-opacity:1;stroke-width:0.00390625"
     d="m 15.796875,1.4409933 c 0.278641,-0.1021095 0.647725,-0.2274408 0.970703,-0.329625 1.529934,-0.48404291 3.161265,-0.82137206 4.75,-0.98221224 0.05371,-0.005438 0.104248,-0.0108152 0.112305,-0.0119503 0.01406,-0.001981 0.01465,-0.001603 0.01465,0.009358 0,0.0135074 0.0028,0.0128483 -0.09375,0.0219039 -0.307026,0.0287903 -0.980145,0.12267305 -1.471814,0.20528012 -1.452862,0.24410088 -2.842435,0.6056806 -4.155747,1.08136382 l -0.09827,0.035592 -0.05408,-1.824e-4 -0.05408,-1.823e-4 z"
     id="path2137" />
  <path
     style="fill:#282828;fill-opacity:1;stroke-width:0.00390625"
     d="M 28.248047,0.40790246 C 27.739113,0.31320822 26.917991,0.19420184 26.458984,0.14861095 25.522357,0.05558037 23.831205,0.0289023 22.492187,0.08603439 c -0.267117,0.01139714 -0.554602,0.02866044 -0.746824,0.0448463 -0.05089,0.004285 -0.0944,0.007791 -0.09668,0.007791 -0.0023,0 -0.0042,-0.005273 -0.0042,-0.0117188 0,-0.008552 0.0018,-0.0117222 0.0068,-0.0117316 0.0038,-7.05e-6 0.0332,-0.00262 0.06543,-0.005807 0.03223,-0.003187 0.119238,-0.01105427 0.193359,-0.01748271 2.109203,-0.18292899 4.276306,-0.08540049 6.338867,0.28527487 l 0.114258,0.0205339 v 0.0149971 c 0,0.0118568 -0.0014,0.0148992 -0.0068,0.0145297 -0.0038,-2.5703e-4 -0.05254,-0.008971 -0.108398,-0.0193645 z"
     id="path2139" />
  <path
     style="fill:#282828;fill-opacity:1;stroke-width:0.00390625"
     d="M 38.075812,4.6080012 C 37.521628,4.2020459 36.828866,3.748367 36.167969,3.3585862 34.671539,2.4760284 32.968414,1.7075268 31.34847,1.183883 30.721072,0.98107762 30.179672,0.82955376 29.505859,0.6681842 l -0.08984,-0.0215165 0.07422,0.00104 0.07422,0.00104 0.205078,0.0512588 c 0.498707,0.12465071 0.928886,0.24465609 1.371094,0.3824888 1.628029,0.5074443 3.173077,1.1764343 4.666016,2.0203372 0.758291,0.4286339 1.532349,0.9257087 2.24707,1.442995 l 0.118164,0.085522 v 0.023192 c 0,0.012755 -4.39e-4,0.023013 -9.77e-4,0.022794 -5.37e-4,-2.187e-4 -0.04333,-0.03142 -0.09509,-0.069336 z"
     id="path2141" />
  <path
     style="fill:#282828;fill-opacity:1;stroke-width:0.00390625"
     d="m 46.826088,16.676758 c -9.85e-4,-0.0027 -0.02977,-0.08838 -0.06397,-0.19043 -0.357805,-1.067666 -0.801192,-2.129275 -1.335357,-3.197265 -0.262606,-0.525047 -0.604632,-1.149902 -0.867556,-1.584961 l -0.02774,-0.0459 h 0.02682 0.02681 l 0.06439,0.108399 c 0.849841,1.430568 1.55224,2.956249 2.082968,4.524414 0.05534,0.163508 0.126917,0.381806 0.126917,0.387063 0,0.0055 -0.03124,0.0043 -0.03329,-0.0013 z"
     id="path2143" />
  <path
     style="fill:#282828;fill-opacity:1;stroke-width:0.00390625"
     d="m 47.947608,23.459961 c -0.0088,-0.329886 -0.01352,-0.467371 -0.02389,-0.69043 -0.06115,-1.315606 -0.225617,-2.600797 -0.491635,-3.841797 -0.02528,-0.117926 -0.08267,-0.374266 -0.08686,-0.387951 -0.0019,-0.0061 -1.31e-4,-0.0069 0.01281,-0.0059 l 0.01498,0.0012 0.02235,0.09766 c 0.278453,1.216913 0.463959,2.482013 0.547869,3.736329 0.02389,0.357058 0.04171,0.751231 0.04756,1.051757 l 0.0026,0.135743 h -0.02164 -0.02164 z"
     id="path2145" />
  <path
     style="fill:#282828;fill-opacity:1;stroke-width:0.00390625"
     d="m 47.342299,18.526367 c -0.0011,-0.0038 -0.01358,-0.05606 -0.02777,-0.116211 -0.115665,-0.490515 -0.28142,-1.084591 -0.449038,-1.609375 -0.01784,-0.05586 -0.03367,-0.105517 -0.03517,-0.110351 -0.0025,-0.0082 -0.0016,-0.0088 0.01444,-0.0088 h 0.01717 l 0.04541,0.145507 c 0.139713,0.447689 0.26096,0.878881 0.372083,1.323243 0.04278,0.171073 0.09166,0.373333 0.09166,0.37928 0,0.0019 -0.006,0.0035 -0.01341,0.0035 -0.0094,0 -0.014,-0.002 -0.01539,-0.0068 z"
     id="path2147" />
  <path
     style="fill:#282828;fill-opacity:1;stroke-width:0.00390625"
     d="M 44.49952,11.604492 C 44.059497,10.870775 43.509983,10.065891 42.974725,9.3710938 42.778125,9.1158952 42.49906,8.7677477 42.360239,8.6044922 l -0.01744,-0.020508 0.02489,8.15e-5 0.02489,8.16e-5 0.04102,0.049465 c 0.130461,0.1573359 0.190058,0.2304341 0.308271,0.3781065 0.602135,0.7521871 1.146314,1.5208602 1.64957,2.3300782 0.07878,0.126673 0.186545,0.30367 0.189361,0.31101 0.0016,0.0043 -0.0033,0.0054 -0.0235,0.0054 h -0.02557 z"
     id="path2149" />
  <path
     style="fill:#282828;fill-opacity:1;stroke-width:0.00390625"
     d="M 42.310547,8.5458553 C 42.098459,8.289795 41.719361,7.8639611 41.42994,7.5566839 41.189823,7.3017534 40.784197,6.893348 40.542969,6.6636356 39.84054,5.9947406 39.151115,5.4107428 38.390625,4.8404301 38.282129,4.7590658 38.191689,4.6909317 38.189648,4.689021 c -0.0022,-0.00205 0.0085,-0.00347 0.02617,-0.00347 h 0.02988 l 0.157427,0.1182761 c 0.781812,0.5873849 1.510323,1.2075295 2.235516,1.9029834 0.130021,0.1246895 0.526427,0.5210727 0.650652,0.6506155 0.374736,0.3907767 0.733098,0.7880831 1.046437,1.1601562 0.02443,0.029004 0.04704,0.055811 0.05026,0.05957 0.0055,0.00641 0.0043,0.00682 -0.01917,0.00664 l -0.02502,-2e-4 -0.03125,-0.037729 z"
     id="path2151" />
  <path
     style="fill:#282828;fill-opacity:1;stroke-width:0.00390625"
     d="M 29.384766,0.64073138 C 29.241225,0.60479998 28.71371,0.49410379 28.462891,0.44728089 c -0.04727,-0.008824 -0.08901,-0.0169496 -0.09277,-0.0180579 -0.005,-0.00146 -0.0068,-0.006092 -0.0068,-0.0168178 v -0.0148027 l 0.0498,0.009367 c 0.266009,0.0500278 0.498284,0.0970567 0.739644,0.14975587 0.12455,0.0271946 0.377152,0.0847677 0.384379,0.0876076 0.01065,0.004183 -0.135,7.4021e-4 -0.152343,-0.003601 z"
     id="path2153" />
  <path
     style="fill:#282828;fill-opacity:1;stroke-width:0.00390625"
     d="m 47.771304,27.071289 c 0.005,-0.03 0.0369,-0.306163 0.05265,-0.456055 0.05756,-0.548065 0.09466,-1.09031 0.113451,-1.658203 0.01078,-0.325773 0.01348,-0.512267 0.01362,-0.938476 l 1.48e-4,-0.461914 h 0.02009 c 0.01487,0 0.02072,0.0016 0.0225,0.0063 0.0039,0.01029 0.0027,0.790412 -0.0015,0.970271 -0.01972,0.835898 -0.07384,1.588145 -0.174069,2.419922 -0.0075,0.0623 -0.01453,0.117236 -0.0156,0.12207 -0.0016,0.0073 -0.0045,0.0088 -0.01767,0.0088 -0.01558,0 -0.01571,-1.22e-4 -0.0136,-0.0127 z"
     id="path2155" />
  <path
     style="fill:#282828;fill-opacity:1;stroke-width:0.00390625"
     d="m 47.777861,27.080451 c -0.0045,-0.0028 -0.004,-0.014 0.0029,-0.06925 0.06741,-0.539009 0.11999,-1.169991 0.146758,-1.761205 0.01762,-0.389151 0.02184,-0.586488 0.02429,-1.134766 0.0018,-0.412195 0.0011,-0.542117 -0.0042,-0.726562 -0.01377,-0.483334 -0.0287,-0.804022 -0.05513,-1.184561 -0.0053,-0.0768 -0.0097,-0.140523 -0.0097,-0.141602 0,-0.0011 0.0077,-0.002 0.01721,-0.002 h 0.01721 l 0.0023,0.01855 c 0.0037,0.0292 0.01706,0.214982 0.02765,0.383789 0.01771,0.282307 0.03386,0.636865 0.03898,0.855468 0.0012,0.05049 0.0032,0.124615 0.0044,0.164725 l 0.0022,0.07293 -0.0091,0.0017 c -0.0091,0.0017 -0.0091,0.0017 -3.23e-4,0.0023 l 0.0088,5.32e-4 3.01e-4,0.196289 c 6.81e-4,0.444372 -7.79e-4,0.735181 -0.0043,0.864258 -0.02037,0.73843 -0.06573,1.392242 -0.146615,2.113281 -0.01793,0.159794 -0.04013,0.342606 -0.04179,0.343971 -0.0043,0.0035 -0.01758,0.0048 -0.02189,0.0021 z"
     id="path2157" />
  <path
     style="fill:#282828;fill-opacity:1;stroke-width:0.00552427"
     d="m 47.04108,30.615753 c 0.0017,-0.0044 0.02208,-0.0759 0.04528,-0.158823 0.290411,-1.037743 0.50252,-2.053223 0.648438,-3.10443 0.01195,-0.08608 0.0247,-0.18137 0.02834,-0.211753 l 0.0066,-0.05524 h 0.01588 c 0.01457,0 0.01565,0.0014 0.01313,0.01657 -0.0015,0.0091 -0.01159,0.08245 -0.02239,0.162966 -0.142248,1.060187 -0.380178,2.208847 -0.66912,3.230318 l -0.03633,0.128439 h -0.01646 c -0.01214,0 -0.01565,-0.0021 -0.01337,-0.008 z"
     id="path2159" />
  <path
     style="fill:#282828;fill-opacity:1;stroke-width:0.00390625"
     d=""
     id="path2161" />
  <path
     style="fill:#282828;fill-opacity:1;stroke-width:0.00552427"
     d="m 46.007274,33.486754 c 0.390226,-0.901515 0.719704,-1.807172 0.990293,-2.722085 0.04551,-0.15388 0.04016,-0.140869 0.05799,-0.140869 h 0.01553 l -0.01638,0.05662 c -0.269819,0.932931 -0.590703,1.831377 -0.980591,2.745563 l -0.0913,0.214066 h -0.02095 -0.02095 z"
     id="path2163" />
  <path
     style="fill:#282828;fill-opacity:1;stroke-width:0.00552427"
     d="m 42.072853,39.735995 c 0,-0.0016 0.0454,-0.05564 0.100887,-0.120153 1.477261,-1.717588 2.736511,-3.698199 3.688805,-5.80194 0.03709,-0.08194 0.0696,-0.154583 0.07223,-0.16142 0.0037,-0.0096 0.0092,-0.01243 0.02426,-0.01243 0.01071,0 0.01947,0.0021 0.01947,0.0047 0,0.0059 -0.108872,0.248012 -0.200334,0.445512 -0.912815,1.971103 -2.107372,3.829005 -3.538565,5.503556 -0.122566,0.143406 -0.124176,0.145012 -0.14535,0.145012 -0.01178,0 -0.02141,-0.0013 -0.02141,-0.0029 z"
     id="path2165" />
  <path
     style="fill:#282828;fill-opacity:1;stroke-width:0.00390625"
     d="m 37.340178,43.903795 c 0.62769,-0.424465 1.109627,-0.778496 1.657869,-1.217872 1.070168,-0.857662 2.096305,-1.838475 2.993553,-2.861328 l 0.07505,-0.08556 0.02489,-3.76e-4 0.02489,-3.77e-4 -0.02201,0.02539 c -0.796244,0.918375 -1.757236,1.859281 -2.717465,2.660664 -0.64085,0.534839 -1.370883,1.083031 -2.003876,1.504738 l -0.03903,0.026 h -0.03485 -0.03485 z"
     id="path2167" />
  <path
     style="fill:#282828;fill-opacity:1;stroke-width:0.00552427"
     d="m 27.859894,47.671003 0.0018,-0.01832 0.07734,-0.01265 c 0.155627,-0.02546 0.574726,-0.10278 0.788912,-0.14555 1.437446,-0.287045 2.722204,-0.666157 4.066923,-1.200085 1.538009,-0.610676 2.950401,-1.345767 4.378907,-2.279039 l 0.08655,-0.05654 0.03193,0.0017 0.03193,0.0017 -0.07981,0.05209 c -0.243107,0.158666 -0.421834,0.273513 -0.552136,0.354795 -1.52166,0.949203 -3.125125,1.717059 -4.806305,2.301609 -1.256819,0.436999 -2.591662,0.779179 -3.861278,0.989817 -0.07444,0.01235 -0.142356,0.0239 -0.150925,0.02566 -0.01484,0.0031 -0.0155,0.0023 -0.01381,-0.01512 z"
     id="path2169" />
  <path
     style="fill:#282828;fill-opacity:1;stroke-width:0.00390625"
     d="m 13.652344,18.451172 v -1.824219 h 0.01367 0.01367 v 1.824219 1.824219 h -0.01367 -0.01367 z"
     id="path2171" />
  <path
     style="fill:#282828;fill-opacity:1;stroke-width:0.00390625"
     d="m 13.652344,20.800768 v -0.525377 h 0.01366 0.01366 l 9.92e-4,0.473344 9.93e-4,0.473343 0.259248,-0.252794 c 0.290077,-0.282856 0.353415,-0.343195 0.457753,-0.436081 0.680853,-0.606126 1.439882,-1.032603 2.256503,-1.267865 0.181695,-0.05234 0.301802,-0.07926 0.450324,-0.100923 0.175126,-0.02554 0.419229,-0.04648 0.589843,-0.05061 0.07785,-0.0019 0.07662,-0.0017 -0.04102,0.0074 -0.811635,0.06279 -1.582471,0.305356 -2.287109,0.719715 -0.584407,0.343657 -1.139928,0.81783 -1.645028,1.404139 l -0.06982,0.08104 z"
     id="path2173" />
  <path
     style="fill:#282828;fill-opacity:1;stroke-width:0.00390625"
     d="m 13.652344,19.693466 v -1.629013 h 0.01367 0.01367 l 9.81e-4,1.580233 9.82e-4,1.580234 0.113473,-0.110507 c 0.436866,-0.425442 0.502856,-0.488651 0.603337,-0.577901 0.669226,-0.594433 1.401176,-1.01108 2.199205,-1.251851 0.258695,-0.07805 0.426315,-0.112347 0.683594,-0.139869 0.108965,-0.01166 0.297014,-0.02589 0.330078,-0.02498 0.01718,4.71e-4 0.01926,0.001 0.0078,0.002 -1.010398,0.09012 -1.911626,0.432122 -2.742773,1.040835 -0.405858,0.29724 -0.789102,0.656851 -1.172418,1.100119 l -0.05161,0.05968 z"
     id="path2175" />
  <path
     style="fill:#282828;fill-opacity:1;stroke-width:0.00390625"
     d="m 21.517578,20.235141 c -0.189466,-0.159121 -0.419094,-0.315288 -0.666016,-0.452947 -0.09863,-0.05498 -0.314409,-0.162759 -0.423828,-0.211685 -0.512139,-0.228998 -1.058297,-0.372315 -1.658203,-0.435127 -0.02164,-0.0023 -0.02725,-0.0037 -0.0161,-0.004 0.05949,-0.0018 0.38273,0.03514 0.545135,0.06234 0.33035,0.05531 0.778464,0.19458 1.143558,0.355407 0.09214,0.04059 0.303188,0.145213 0.386004,0.191358 0.235343,0.13113 0.465538,0.28848 0.660156,0.451251 0.08747,0.07315 0.09668,0.08201 0.08766,0.08421 -0.0054,0.0013 -0.02209,-0.01034 -0.05836,-0.0408 z"
     id="path2177" />
  <path
     style="fill:#282828;fill-opacity:1;stroke-width:0.00390625"
     d="m 23.071089,27.692383 c 4.27e-4,-1.149951 0.0012,-2.078516 0.0018,-2.063477 0.0032,0.09024 0.01528,1.77732 0.02073,2.900391 0.0021,0.441504 0.0048,0.904248 0.006,1.02832 l 0.0021,0.225586 h -0.01569 -0.01569 z"
     id="path2181" />
  <path
     style="fill:#282828;fill-opacity:1;stroke-width:0.00552427"
     d="m 17.097621,33.126295 v -3.552106 h 1.02408 1.024081 l 0.0035,0.509614 c 0.0019,0.280287 0.0059,1.136066 0.0089,1.90173 0.003,0.765664 0.007,1.611499 0.0089,1.879634 l 0.0035,0.487517 h 1.979677 1.979677 l -0.0028,-0.277595 c -0.0016,-0.152677 -0.0064,-1.074333 -0.01078,-2.048124 -0.0044,-0.973791 -0.0094,-1.924034 -0.01125,-2.111653 l -0.0033,-0.341123 h 0.923057 0.923057 l -0.0038,2.389247 -0.0038,2.389248 h 1.97584 1.97584 l 9.4e-5,-0.238925 c 6.6e-5,-0.164532 0.01982,-4.245635 0.02191,-4.527141 l 9e-5,-0.01243 h 0.334219 0.334218 v 3.552106 3.552107 h -6.242427 -6.242427 z"
     id="path2183" />
  <path
     style="fill:#282828;fill-opacity:1;stroke-width:0.00552427"
     d="m 19.172655,33.936982 c -0.0019,-0.225597 -0.0059,-1.051545 -0.0089,-1.835439 -0.003,-0.783894 -0.0071,-1.673233 -0.009,-1.976308 l -0.0036,-0.551046 h 0.0256 0.0256 v 2.375437 2.375436 h 1.933495 1.933495 v -2.270475 -2.270476 h 0.01371 c 0.0098,0 0.01439,0.0035 0.01612,0.01243 0.0013,0.0068 0.0064,0.930978 0.01116,2.053648 0.0048,1.12267 0.01028,2.143762 0.01215,2.269094 l 0.0034,0.227876 h -1.974909 -1.974909 z"
     id="path2185" />
  <path
     style="fill:#282828;fill-opacity:1;stroke-width:0.00390625"
     d="m 19.203125,30.958984 v -1.386718 h -0.02539 -0.02539 l -7e-6,-0.04395 c -1.7e-5,-0.117017 -0.0077,-1.587816 -0.0098,-1.876953 l -0.0024,-0.329101 h 0.03347 0.03347 v 2.511718 c 0,1.381446 -8.79e-4,2.511719 -0.002,2.511719 -0.0011,0 -0.002,-0.624023 -0.002,-1.386719 z"
     id="path2187" />
  <path
     style="fill:#282828;fill-opacity:1;stroke-width:0.00552427"
     d="m 19.141564,27.238803 c -2.19e-4,-0.477489 -0.01798,-2.000889 -0.02768,-2.374056 -0.01758,-0.67625 -0.03799,-0.923534 -0.09414,-1.140762 -0.133789,-0.51754 -0.419682,-0.92864 -0.841014,-1.209334 -0.06049,-0.0403 -0.178112,-0.108066 -0.227602,-0.131131 l -0.02762,-0.01287 0.04023,-5.4e-5 c 0.03956,-5.3e-5 0.04137,5.87e-4 0.108847,0.03836 0.08075,0.0452 0.213049,0.132828 0.278312,0.184341 0.304877,0.240645 0.524678,0.55623 0.643231,0.923537 0.09247,0.286506 0.15149,0.772988 0.183289,1.510888 0.01788,0.414794 0.02061,0.581616 0.02334,1.423881 l 0.0028,0.868692 h -0.03099 -0.03098 l -3.9e-5,-0.08148 z"
     id="path2189" />
  <path
     style="fill:#282828;fill-opacity:1;stroke-width:0.00390625"
     d="m 13.671879,25.995117 c 6e-6,-0.03128 0.0141,-0.249216 0.02356,-0.364258 0.04885,-0.594213 0.135895,-1.0816 0.262316,-1.46875 0.283184,-0.867213 0.780587,-1.437447 1.552014,-1.779263 0.324586,-0.143823 0.664457,-0.225196 1.072265,-0.256724 0.09881,-0.0076 0.399557,-0.0064 0.5,0.0021 0.340411,0.02877 0.637156,0.103255 0.873047,0.219143 l 0.04297,0.02111 -0.03954,3.17e-4 c -0.03851,3.08e-4 -0.04054,-1.27e-4 -0.07813,-0.01677 -0.215385,-0.09538 -0.460731,-0.160198 -0.710465,-0.187712 -0.158816,-0.0175 -0.387932,-0.02113 -0.541016,-0.0086 -0.246929,0.02025 -0.482574,0.06274 -0.71622,0.129126 -0.833017,0.236693 -1.41355,0.73363 -1.766028,1.511724 -0.103771,0.229073 -0.196318,0.510148 -0.267609,0.812755 -0.07955,0.337651 -0.124717,0.704313 -0.150384,1.220703 -0.0034,0.06768 -0.0071,0.137549 -0.0084,0.155274 l -0.0023,0.03223 h -0.02309 -0.02309 z"
     id="path2191" />
  <path
     style="fill:#282828;fill-opacity:1;stroke-width:0.00390625"
     d="m 13.651251,28.204102 c 5.13e-4,-0.952986 0.0025,-1.66625 0.0049,-1.772461 0.0045,-0.197512 0.01122,-0.391796 0.01404,-0.405274 0.0017,-0.0079 0.0041,-0.0088 0.0252,-0.0088 0.01625,0 0.02336,0.0015 0.02336,0.0049 0,0.0027 -0.0026,0.07787 -0.0057,0.166992 -0.02051,0.579597 -0.02834,1.222781 -0.03203,2.631771 l -0.0026,0.977539 h -0.01402 -0.01401 z"
     id="path2193" />
  <path
     style="fill:#282828;fill-opacity:1;stroke-width:0.00390625"
     d="m 13.648438,31.78125 v -1.982422 h 0.01563 0.01563 v 1.982422 1.982422 h -0.01563 -0.01563 z"
     id="path2195" />
  <path
     style="fill:#282828;fill-opacity:1;stroke-width:0.00390625"
     d="m 10.019531,34.333984 v -0.01172 h 1.814453 1.814454 V 34.042967 33.76367 h 0.01563 0.01563 v 0.291015 0.291016 h -1.830079 -1.830078 z"
     id="path2197" />
  <path
     style="fill:#282828;fill-opacity:1;stroke-width:0.00390625"
     d="m 9.7890625,34.333984 v -0.01172 h 0.1152344 0.1152341 v 0.01172 0.01172 H 9.9042969 9.7890625 Z"
     id="path2199" />
  <path
     style="fill:#282828;fill-opacity:1;stroke-width:0.00390625"
     d="m 24.971141,15.204102 c 9.15e-4,-0.965186 0.0027,-1.821849 0.004,-1.903696 l 0.0023,-0.148812 0.350141,-0.0027 c 0.36154,-0.0028 1.433194,-0.01123 2.268109,-0.01794 0.26211,-0.0021 0.63125,-0.0048 0.820313,-0.0059 0.189062,-0.0012 0.373193,-0.0031 0.409179,-0.0042 l 0.06543,-0.0021 v 1.920157 1.920156 H 28.875 28.859375 V 15.0625 13.166016 H 26.929687 25 v 1.896484 1.896484 h -0.01526 -0.01526 z"
     id="path2201" />
  <path
     style="fill:#282828;fill-opacity:1;stroke-width:0.00390625"
     d="m 24.966148,19.313803 c 0.0014,-0.748013 0.0026,-1.583853 0.0026,-1.857422 V 16.958984 H 24.984375 25 v 1.857422 1.857422 h -0.01823 -0.01823 z"
     id="path2203" />
  <path
     style="fill:#282828;fill-opacity:1;stroke-width:0.00390625"
     d="m 28.859375,19.142627 v -2.183643 h 0.01563 0.01563 v 2.128907 c 0,1.170898 0.0013,2.128897 0.0029,2.128886 0.0016,0 0.130371,-0.122427 0.286132,-0.272035 0.281328,-0.270214 0.40191,-0.383245 0.504912,-0.473289 0.516485,-0.451513 1.029267,-0.775491 1.581026,-0.998896 0.407002,-0.164794 0.838421,-0.273952 1.318374,-0.333574 0.156038,-0.01938 0.361094,-0.03662 0.492173,-0.04137 0.03437,-0.0012 0.06733,-0.003 0.07324,-0.0039 0.0073,-0.0011 0.01074,3.5e-5 0.01074,0.0037 0,0.0082 -0.0092,0.01009 -0.04846,0.01009 -0.07862,0 -0.298975,0.01584 -0.43787,0.03147 -0.377727,0.04252 -0.744746,0.12411 -1.103516,0.245329 -0.445195,0.150419 -0.871851,0.362259 -1.278225,0.634655 -0.483805,0.324299 -0.951422,0.745866 -1.373242,1.238008 l -0.05947,0.06939 z"
     id="path2205" />
  <path
     style="fill:#282828;fill-opacity:1;stroke-width:0.00390625"
     d="m 28.859375,19.056689 v -2.265673 h 0.01563 0.01563 v 2.21289 c 0,1.27006 0.0015,2.212891 0.0034,2.212891 0.004,0 0.03096,-0.02545 0.27657,-0.260742 0.09924,-0.09507 0.181649,-0.172852 0.183136,-0.172852 0.0015,0 -0.03136,0.03478 -0.07299,0.07729 -0.12996,0.132694 -0.233605,0.245197 -0.356184,0.386627 l -0.06521,0.07524 z"
     id="path2207" />
  <path
     style="fill:#282828;fill-opacity:1;stroke-width:0.00552427"
     d="m 24.951676,30.009225 c 7.16e-4,-0.769462 0.0029,-2.053441 0.0048,-2.853286 l 0.0035,-1.454265 h 0.01865 0.01865 v 2.853287 2.853286 h -0.02348 -0.02348 z"
     id="path2209" />
  <path
     style="fill:#282828;fill-opacity:1;stroke-width:0.00552427"
     d="m 24.955134,29.001045 c 0.002,-1.32396 0.0051,-2.607939 0.0071,-2.853286 l 0.0035,-0.446085 h 0.0158 0.01581 v 2.853287 2.853286 h -0.02288 -0.02287 z"
     id="path2211" />
  <path
     style="fill:#282828;fill-opacity:1;stroke-width:0.00390625"
     d="m 24.945312,33.885415 c 0,-0.253159 0.0012,-0.914096 0.0026,-1.46875 l 0.0026,-1.008462 H 24.975258 25 v 1.457031 1.457032 h 1.929687 1.929688 v -2.183594 -2.183594 h 0.02344 0.02344 l -4.7e-5,0.133789 c -3.9e-5,0.07358 -0.0044,1.005664 -0.0097,2.071289 -0.0053,1.065625 -0.0097,1.993311 -0.0097,2.061524 l -4.6e-5,0.124023 h -1.970703 -1.970704 z"
     id="path2213" />
  <path
     style="fill:#282828;fill-opacity:1;stroke-width:0.00552427"
     d="m 28.858849,28.32156 c 2.9e-5,-0.896077 0.0025,-1.727645 0.0054,-1.84925 0.0054,-0.220605 0.0207,-0.590457 0.02504,-0.603527 0.0014,-0.0042 0.01235,-0.0069 0.02808,-0.0069 h 0.02579 l -0.0036,0.120153 c -0.01035,0.342947 -0.02145,1.553532 -0.02898,3.159883 l -0.0038,0.807925 h -0.02399 -0.02399 z"
     id="path2215" />
  <path
     style="fill:#282828;fill-opacity:1;stroke-width:0.00390625"
     d="m 34.355444,28.041992 c -5e-5,-0.07016 -0.0078,-0.986087 -0.01166,-1.375976 -0.01572,-1.592851 -0.03849,-2.497316 -0.06875,-2.730469 -0.02349,-0.18096 -0.124572,-0.48542 -0.218805,-0.659027 l -0.01741,-0.03207 0.0011,-0.04782 0.0011,-0.04782 0.02476,0.04564 c 0.127696,0.235369 0.19735,0.480824 0.246335,0.868064 0.04926,0.389376 0.07294,0.770745 0.09473,1.525391 0.0025,0.08759 0.005,0.617259 0.006,1.317382 l 0.0018,1.170899 h -0.02961 -0.02961 l -2.5e-5,-0.03418 z"
     id="path2217" />
  <path
     style="fill:#282828;fill-opacity:1;stroke-width:0.00390625"
     d="m 34.386669,34.297852 c -2.8e-5,-0.02632 -0.0044,-0.914454 -0.0097,-1.973633 -0.0053,-1.05918 -0.0097,-1.976319 -0.0097,-2.038086 l -5e-5,-0.112305 h 0.02344 0.02344 v 2.074219 2.074219 h 1.529297 1.529297 v 0.01172 0.01172 h -1.542969 -1.542968 z"
     id="path2219" />
  <path
     style="fill:#282828;fill-opacity:1;stroke-width:0.00390625"
     d="m 34.365763,29.918945 c -0.0013,-0.140185 -0.0033,-0.462304 -0.0044,-0.71582 -0.0011,-0.253516 -0.0032,-0.610791 -0.0045,-0.793945 l -0.0025,-0.333008 h 0.02988 0.02988 V 29.125 30.173828 h -0.02297 -0.02297 z"
     id="path2221" />
  <path
     style="fill:#282828;fill-opacity:1;stroke-width:0.00390625"
     d="m 37.472656,34.333984 v -0.01172 H 37.875 38.277344 v -1.335938 -1.335937 h 0.02539 0.02539 v 1.347656 1.347656 H 37.90039 37.472655 Z"
     id="path2223" />
  <path
     style="fill:#282828;fill-opacity:1;stroke-width:0.00390625"
     d="m 38.277344,30.242187 v -1.408203 h 0.02279 0.02279 l 0.0026,0.770508 c 0.0014,0.423779 0.0026,1.057471 0.0026,1.408203 l 10e-7,0.637696 h -0.02539 -0.02539 z"
     id="path2225" />
  <path
     style="fill:#282828;fill-opacity:1;stroke-width:0.00390625"
     d="m 38.277344,31.345703 v -2.511719 h 0.02084 0.02084 l 0.0026,0.270508 c 0.0014,0.148779 0.0038,1.279053 0.0052,2.511719 l 0.0026,2.241211 h -0.02604 -0.02604 z"
     id="path2227" />
  <path
     style="fill:#282828;fill-opacity:1;stroke-width:0.00390625"
     d="m 38.277344,27.521484 v -1.3125 h 0.01321 0.01321 l 0.0025,0.112305 c 0.0057,0.257773 0.01786,1.819754 0.01793,2.310547 l 3e-5,0.202148 h -0.02344 -0.02344 z"
     id="path2229" />
  <path
     style="fill:#282828;fill-opacity:1;stroke-width:0.00390625"
     d="m 38.233249,23.947266 c -0.02715,-0.474918 -0.08195,-0.943824 -0.149729,-1.28125 -0.100497,-0.500303 -0.273315,-0.967103 -0.519548,-1.403363 -0.04219,-0.07474 -0.122448,-0.206629 -0.154494,-0.253864 l -0.01524,-0.02246 h 0.01157 c 0.01079,0 0.01484,0.0052 0.06014,0.07715 0.242061,0.384478 0.426889,0.80022 0.551673,1.240906 0.09364,0.330714 0.14474,0.64899 0.187241,1.16632 0.01712,0.208338 0.03516,0.492082 0.03278,0.515625 -7.57e-4,0.0075 -0.0027,-0.01006 -0.0044,-0.03906 z"
     id="path2231" />
  <path
     style="fill:#282828;fill-opacity:1;stroke-width:0.00390625"
     d="m 37.353231,20.924805 c -0.259347,-0.381457 -0.585556,-0.69391 -1.023153,-0.980007 -0.252097,-0.164819 -0.581763,-0.334642 -0.882113,-0.454409 -0.6512,-0.25967 -1.353204,-0.386542 -2.140348,-0.386821 -0.12058,-4.3e-5 -0.147461,-10e-4 -0.147461,-0.0053 0,-0.01161 0.371341,-0.01079 0.572266,0.0013 0.872913,0.05236 1.673996,0.281532 2.359038,0.674856 0.440702,0.253033 0.836534,0.581757 1.114452,0.925509 0.06657,0.08234 0.20815,0.275637 0.20815,0.284186 0,0.0012 -0.0043,0.0022 -0.0095,0.0022 -0.0079,0 -0.01659,-0.01042 -0.05133,-0.06152 z"
     id="path2233" />
</svg>
